<?xml version="1.0" encoding="iso-8859-1"?>
<!-- Generator: Adobe Illustrator 19.0.0, SVG Export Plug-In . SVG Version: 6.00 Build 0)  -->
<svg version="1.1" id="Capa_1" xmlns="http://www.w3.org/2000/svg" xmlns:xlink="http://www.w3.org/1999/xlink" x="0px" y="0px"
	 viewBox="0 0 463.974 463.974" style="enable-background:new 0 0 463.974 463.974;" xml:space="preserve">
<path style="fill:#78B9EB;" d="M463.974,227.984c-0.027-48.957-34.194-91.266-82.048-101.6
	c-11.89-65.145-74.34-108.316-139.485-96.426c-36.327,6.631-67.573,29.63-84.699,62.346c-1.92-0.144-3.824-0.32-5.768-0.32
	c-48.13,0.021-88.795,35.698-95.08,83.416c-42.296,12.773-66.229,57.415-53.456,99.712c10.193,33.752,41.279,56.851,76.536,56.872
	h280C417.411,331.984,463.974,285.422,463.974,227.984z"/>
<path style="fill:#FFD422;" d="M354.214,209.744c-12.374-12.482-32.524-12.569-45.006-0.195c-0.065,0.065-0.13,0.129-0.194,0.195
	l-23.68,23.6l45.28,45.28l1.04-1.04l22.56-22.64c12.482-12.374,12.569-32.524,0.194-45.006
	C354.343,209.874,354.279,209.809,354.214,209.744L354.214,209.744z"/>
<path style="fill:#FF9478;" d="M139.254,379.424l-11.28,56.56l56.56-11.28l130.08-130.16l-45.28-45.2L139.254,379.424z"/>
<path style="fill:#FF6243;" d="M269.344,249.379l15.966-15.995l45.301,45.22L314.645,294.6L269.344,249.379z"/>
<g>
</g>
<g>
</g>
<g>
</g>
<g>
</g>
<g>
</g>
<g>
</g>
<g>
</g>
<g>
</g>
<g>
</g>
<g>
</g>
<g>
</g>
<g>
</g>
<g>
</g>
<g>
</g>
<g>
</g>
</svg>
